<?xml version="1.0" encoding="UTF-8" standalone="no"?>
<!-- Created with Inkscape (http://www.inkscape.org/) -->

<svg
   xmlns:dc="http://purl.org/dc/elements/1.1/"
   xmlns:cc="http://creativecommons.org/ns#"
   xmlns:rdf="http://www.w3.org/1999/02/22-rdf-syntax-ns#"
   xmlns:svg="http://www.w3.org/2000/svg"
   xmlns="http://www.w3.org/2000/svg"
   xmlns:xlink="http://www.w3.org/1999/xlink"
   xmlns:sodipodi="http://sodipodi.sourceforge.net/DTD/sodipodi-0.dtd"
   xmlns:inkscape="http://www.inkscape.org/namespaces/inkscape"
   width="210mm"
   height="297mm"
   id="svg2"
   version="1.1"
   inkscape:version="0.48.3.1 r9886"
   sodipodi:docname="people.svg">
  <defs
     id="defs4" />
  <sodipodi:namedview
     id="base"
     pagecolor="#ffffff"
     bordercolor="#666666"
     borderopacity="1.0"
     inkscape:pageopacity="0.0"
     inkscape:pageshadow="2"
     inkscape:zoom="0.49497475"
     inkscape:cx="410.0753"
     inkscape:cy="467.73082"
     inkscape:document-units="px"
     inkscape:current-layer="layer1"
     showgrid="false"
     inkscape:window-width="1225"
     inkscape:window-height="954"
     inkscape:window-x="0"
     inkscape:window-y="28"
     inkscape:window-maximized="0" />
  <metadata
     id="metadata7">
    <rdf:RDF>
      <cc:Work
         rdf:about="">
        <dc:format>image/svg+xml</dc:format>
        <dc:type
           rdf:resource="http://purl.org/dc/dcmitype/StillImage" />
      </cc:Work>
    </rdf:RDF>
  </metadata>
  <g
     inkscape:label="Calque 1"
     inkscape:groupmode="layer"
     id="layer1">
    <g
       id="g4150"
       transform="translate(-1.0101624,38.385797)">
      <rect
         ry="20.346663"
         y="82.210144"
         x="364.97928"
         height="40.693325"
         width="60.753414"
         id="rect3803"
         style="fill:#373748;fill-opacity:1;stroke:none" />
      <path
         transform="matrix(0,-0.3911375,0.32340946,0,300.68412,154.35502)"
         d="m 262.85714,195.21933 c 0,39.44891 -96.25878,71.42857 -214.999997,71.42857 -118.741221,0 -215.000003,-31.97966 -215.000003,-71.42857 0,-39.44891 96.258782,-71.42857 215.000003,-71.42857 118.741217,0 214.999997,31.97966 214.999997,71.42857 z"
         sodipodi:ry="71.428574"
         sodipodi:rx="215"
         sodipodi:cy="195.21933"
         sodipodi:cx="47.857143"
         id="path2990"
         style="fill:#d38d5f;fill-opacity:1;stroke:none"
         sodipodi:type="arc" />
      <path
         inkscape:transform-center-x="-17.162875"
         sodipodi:nodetypes="cssssc"
         inkscape:connector-curvature="0"
         id="path3762-0"
         d="m 369.96174,85.178372 c 0,0 -41.39593,-15.308404 -50.4372,-28.337349 -11.42904,-16.469884 -31.52519,-31.393068 -18.19578,-34.437641 12.9781,-2.964336 19.45428,13.906765 31.02778,21.015266 10.50477,6.452099 39.34995,2.25082 47.08261,15.259352 10.25824,17.257253 -9.47741,26.500372 -9.47741,26.500372 z"
         style="fill:#d38d5f;stroke:none" />
      <path
         sodipodi:nodetypes="sssssss"
         inkscape:connector-curvature="0"
         id="path2987"
         d="m 370.00155,104.74712 c 15.07857,0 27.83238,9.78334 32.04947,23.24424 0.9618,3.07007 6.63786,5.47169 6.63786,8.8519 0,3.15366 -5.60897,7.06356 -6.45047,9.95148 -4.01511,13.77938 -16.9278,23.86409 -32.23686,23.86409 -18.51756,0 -33.529,-14.75484 -33.529,-32.95585 0,-18.20102 15.01144,-32.95586 33.529,-32.95586 z"
         style="fill:#d38d5f;fill-opacity:1;stroke:none" />
      <rect
         ry="20.346663"
         y="139.81056"
         x="303.04578"
         height="40.693325"
         width="60.753414"
         id="rect3803-7"
         style="fill:#373748;fill-opacity:1;stroke:none" />
      <path
         sodipodi:nodetypes="cscsc"
         inkscape:connector-curvature="0"
         id="path3762"
         d="m 364.60277,222.05761 c 0,0 84.07257,-26.75805 104.37007,-58.5999 16.17348,-25.37228 -55.03593,15.58723 -55.03593,15.58723 0,0 -47.15676,-7.95654 -56.21188,6.86377 -12.01262,19.66079 6.87774,36.1489 6.87774,36.1489 z"
         style="fill:#d38d5f;stroke:none" />
      <rect
         ry="21.884853"
         y="75.860016"
         x="341.52802"
         height="127.25635"
         width="43.769707"
         id="rect3782"
         style="fill:#87deaa;fill-opacity:1;stroke:none" />
      <path
         transform="matrix(0,-0.68896751,0.64554519,0,302.2881,209.67366)"
         d="m 153.5432,99.78833 c 0,27.3367 -22.16078,49.49747 -49.49748,49.49747 -27.336697,0 -49.497472,-22.16077 -49.497472,-49.49747 0,-27.3367 22.160775,-49.497475 49.497472,-49.497475 27.3367,0 49.49748,22.160775 49.49748,49.497475 z"
         sodipodi:ry="49.497475"
         sodipodi:rx="49.497475"
         sodipodi:cy="99.78833"
         sodipodi:cx="104.04572"
         id="path2985"
         style="fill:#502d16;fill-opacity:1;stroke:none"
         sodipodi:type="arc" />
    </g>
    <g
       id="g4140"
       transform="translate(0,38.385797)">
      <use
         height="1052.3622"
         width="744.09448"
         transform="translate(-238.396,0)"
         id="use4110"
         xlink:href="#path2990"
         y="0"
         x="0" />
      <use
         height="1052.3622"
         width="744.09448"
         transform="translate(-238.396,0)"
         id="use4114"
         xlink:href="#path2987"
         y="0"
         x="0" />
      <use
         height="1052.3622"
         width="744.09448"
         transform="translate(-238.396,0)"
         id="use4120"
         xlink:href="#rect3782"
         y="0"
         x="0" />
      <use
         height="1052.3622"
         width="744.09448"
         transform="translate(-238.396,0)"
         id="use4122"
         xlink:href="#path2985"
         y="0"
         x="0" />
    </g>
    <g
       id="g4160"
       transform="translate(0,38.385797)">
      <use
         height="1052.3622"
         width="744.09448"
         transform="matrix(1,0,0,-1,236.3757,244.11522)"
         id="use4124"
         xlink:href="#rect3803"
         y="0"
         x="0" />
      <use
         height="1052.3622"
         width="744.09448"
         transform="matrix(1,0,0,-1,236.3757,244.11522)"
         id="use4126"
         xlink:href="#path2990"
         y="0"
         x="0" />
      <use
         height="1052.3622"
         width="744.09448"
         transform="matrix(1,0,0,-1,236.3757,244.11522)"
         id="use4128"
         inkscape:transform-center-x="-17.162875"
         xlink:href="#path3762-0"
         y="0"
         x="0" />
      <use
         height="1052.3622"
         width="744.09448"
         transform="matrix(1,0,0,-1,236.3757,244.11522)"
         id="use4130"
         xlink:href="#path2987"
         y="0"
         x="0" />
      <use
         height="1052.3622"
         width="744.09448"
         transform="matrix(1,0,0,-1,236.3757,244.11522)"
         id="use4132"
         xlink:href="#rect3803-7"
         y="0"
         x="0" />
      <use
         height="1052.3622"
         width="744.09448"
         transform="matrix(1,0,0,-1,236.3757,244.11522)"
         id="use4134"
         xlink:href="#path3762"
         y="0"
         x="0" />
      <use
         height="1052.3622"
         width="744.09448"
         transform="matrix(1,0,0,-1,236.3757,244.11522)"
         id="use4136"
         xlink:href="#rect3782"
         y="0"
         x="0" />
      <use
         height="1052.3622"
         width="744.09448"
         transform="matrix(1,0,0,-1,236.3757,244.11522)"
         id="use4138"
         xlink:href="#path2985"
         y="0"
         x="0" />
    </g>
    <rect
       ry="20.346663"
       y="373.45309"
       x="363.96912"
       height="40.693325"
       width="60.753414"
       id="rect4265"
       style="fill:#373748;fill-opacity:1;stroke:none" />
    <path
       transform="matrix(0,-0.3911375,0.32340946,0,299.67396,445.59796)"
       d="m 262.85714,195.21933 a 215,71.428574 0 1 1 -430,0 215,71.428574 0 1 1 430,0 z"
       sodipodi:ry="71.428574"
       sodipodi:rx="215"
       sodipodi:cy="195.21933"
       sodipodi:cx="47.857143"
       id="path4267"
       style="fill:#d38d5f;fill-opacity:1;stroke:none"
       sodipodi:type="arc" />
    <path
       inkscape:transform-center-x="-17.162875"
       sodipodi:nodetypes="cssssc"
       inkscape:connector-curvature="0"
       id="path4269"
       d="m 368.95158,376.42131 c 0,0 -41.39593,-15.3084 -50.4372,-28.33735 -11.42904,-16.46988 -31.52519,-31.39307 -18.19578,-34.43764 12.9781,-2.96433 19.45428,13.90677 31.02778,21.01527 10.50477,6.4521 39.34995,2.25082 47.08261,15.25935 10.25824,17.25725 -9.47741,26.50037 -9.47741,26.50037 z"
       style="fill:#d38d5f;stroke:none" />
    <path
       sodipodi:nodetypes="sssssss"
       inkscape:connector-curvature="0"
       id="path4271"
       d="m 368.99139,395.99006 c 15.07857,0 27.83238,9.78334 32.04947,23.24424 0.9618,3.07007 6.63786,5.47169 6.63786,8.8519 0,3.15366 -5.60897,7.06356 -6.45047,9.95148 -4.01511,13.77938 -16.9278,23.86409 -32.23686,23.86409 -18.51756,0 -33.529,-14.75484 -33.529,-32.95585 0,-18.20102 15.01144,-32.95586 33.529,-32.95586 z"
       style="fill:#d38d5f;fill-opacity:1;stroke:none" />
    <rect
       ry="20.346663"
       y="431.0535"
       x="302.03561"
       height="40.693325"
       width="60.753414"
       id="rect4273"
       style="fill:#373748;fill-opacity:1;stroke:none" />
    <path
       sodipodi:nodetypes="cscsc"
       inkscape:connector-curvature="0"
       id="path4275"
       d="m 363.59261,513.30055 c 0,0 84.07257,-26.75805 104.37007,-58.5999 16.17348,-25.37228 -55.03593,15.58723 -55.03593,15.58723 0,0 -47.15676,-7.95654 -56.21188,6.86377 -12.01262,19.66079 6.87774,36.1489 6.87774,36.1489 z"
       style="fill:#d38d5f;stroke:none" />
    <rect
       ry="21.884853"
       y="367.10297"
       x="340.51785"
       height="127.25635"
       width="43.769707"
       id="rect4277"
       style="fill:#226db1;fill-opacity:1;stroke:none" />
    <path
       transform="matrix(0,-0.68896751,0.64554519,0,301.27794,500.9166)"
       d="m 153.5432,99.78833 a 49.497475,49.497475 0 1 1 -98.994952,0 49.497475,49.497475 0 1 1 98.994952,0 z"
       sodipodi:ry="49.497475"
       sodipodi:rx="49.497475"
       sodipodi:cy="99.78833"
       sodipodi:cx="104.04572"
       id="path4279"
       style="fill:#502d16;fill-opacity:1;stroke:none"
       sodipodi:type="arc" />
    <use
       height="1052.3622"
       width="744.09448"
       transform="translate(-238.396,291.24294)"
       id="use4283"
       xlink:href="#path2990"
       y="0"
       x="0" />
    <use
       height="1052.3622"
       width="744.09448"
       transform="translate(-238.396,291.24294)"
       id="use4285"
       xlink:href="#path2987"
       y="0"
       x="0" />
    <use
       x="0"
       y="0"
       xlink:href="#use4333"
       id="use4335"
       transform="translate(-475.78184,24.243661)"
       width="744.09448"
       height="1052.3622" />
    <use
       height="1052.3622"
       width="744.09448"
       transform="translate(-238.396,291.24294)"
       id="use4289"
       xlink:href="#path2985"
       y="0"
       x="0" />
    <use
       height="1052.3622"
       width="744.09448"
       transform="matrix(1,0,0,-1,236.3757,535.35816)"
       id="use4293"
       xlink:href="#rect3803"
       y="0"
       x="0" />
    <use
       height="1052.3622"
       width="744.09448"
       transform="matrix(1,0,0,-1,236.3757,535.35816)"
       id="use4295"
       xlink:href="#path2990"
       y="0"
       x="0" />
    <use
       height="1052.3622"
       width="744.09448"
       transform="matrix(1,0,0,-1,236.3757,535.35816)"
       id="use4297"
       inkscape:transform-center-x="-17.162875"
       xlink:href="#path3762-0"
       y="0"
       x="0" />
    <use
       height="1052.3622"
       width="744.09448"
       transform="matrix(1,0,0,-1,236.3757,535.35816)"
       id="use4299"
       xlink:href="#path2987"
       y="0"
       x="0" />
    <use
       height="1052.3622"
       width="744.09448"
       transform="matrix(1,0,0,-1,236.3757,535.35816)"
       id="use4301"
       xlink:href="#rect3803-7"
       y="0"
       x="0" />
    <use
       height="1052.3622"
       width="744.09448"
       transform="matrix(1,0,0,-1,236.3757,535.35816)"
       id="use4303"
       xlink:href="#path3762"
       y="0"
       x="0" />
    <use
       x="0"
       y="0"
       xlink:href="#rect4277"
       id="use4333"
       transform="translate(238.396,-28.284272)"
       width="744.09448"
       height="1052.3622" />
    <use
       height="1052.3622"
       width="744.09448"
       transform="matrix(1,0,0,-1,236.3757,535.35816)"
       id="use4307"
       xlink:href="#path2985"
       y="0"
       x="0" />
    <rect
       ry="20.346663"
       y="864.04486"
       x="356.207"
       height="40.693325"
       width="60.753414"
       id="rect4265-4"
       style="fill:#373e48;fill-opacity:1;stroke:none" />
    <path
       transform="matrix(0,-0.3911375,0.32340946,0,291.91185,936.1897)"
       d="m 262.85714,195.21933 a 215,71.428574 0 1 1 -430,0 215,71.428574 0 1 1 430,0 z"
       sodipodi:ry="71.428574"
       sodipodi:rx="215"
       sodipodi:cy="195.21933"
       sodipodi:cx="47.857143"
       id="path4267-7"
       style="fill:#784421;fill-opacity:1;stroke:none"
       sodipodi:type="arc" />
    <path
       inkscape:transform-center-x="-17.162875"
       sodipodi:nodetypes="cssssc"
       inkscape:connector-curvature="0"
       id="path4269-0"
       d="m 361.18947,867.01305 c 0,0 -41.39593,-15.3084 -50.4372,-28.33735 -11.42904,-16.46988 -31.52519,-31.39307 -18.19578,-34.43764 12.9781,-2.96433 19.45428,13.90677 31.02778,21.01527 10.50477,6.4521 39.34995,2.25082 47.08261,15.25935 10.25824,17.25725 -9.47741,26.50037 -9.47741,26.50037 z"
       style="fill:#784421;stroke:none" />
    <path
       sodipodi:nodetypes="sssssss"
       inkscape:connector-curvature="0"
       id="path4271-0"
       d="m 361.22928,886.5818 c 15.07857,0 27.83238,9.78334 32.04947,23.24424 0.9618,3.07007 6.63786,5.47169 6.63786,8.8519 0,3.15366 -5.60897,7.06356 -6.45047,9.95148 -4.01511,13.77938 -16.9278,23.86409 -32.23686,23.86409 -18.51756,0 -33.529,-14.75484 -33.529,-32.95585 0,-18.20102 15.01144,-32.95586 33.529,-32.95586 z"
       style="fill:#784421;fill-opacity:1;stroke:none" />
    <rect
       ry="20.346663"
       y="921.64526"
       x="294.2735"
       height="40.693325"
       width="60.753414"
       id="rect4273-0"
       style="fill:#373e48;fill-opacity:1;stroke:none" />
    <path
       sodipodi:nodetypes="cscsc"
       inkscape:connector-curvature="0"
       id="path4275-0"
       d="m 355.8305,1003.8923 c 0,0 84.07257,-26.75806 104.37007,-58.59991 16.17348,-25.37228 -55.03593,15.58723 -55.03593,15.58723 0,0 -47.15676,-7.95654 -56.21188,6.86377 -12.01262,19.66079 6.87774,36.14891 6.87774,36.14891 z"
       style="fill:#784421;stroke:none" />
    <rect
       ry="21.884853"
       y="857.6947"
       x="332.75574"
       height="127.25635"
       width="43.769707"
       id="rect4277-2"
       style="fill:#00ff00;fill-opacity:1;stroke:none" />
    <path
       transform="matrix(0,-0.68896751,0.64554519,0,293.51583,991.50834)"
       d="m 153.5432,99.78833 a 49.497475,49.497475 0 1 1 -98.994952,0 49.497475,49.497475 0 1 1 98.994952,0 z"
       sodipodi:ry="49.497475"
       sodipodi:rx="49.497475"
       sodipodi:cy="99.78833"
       sodipodi:cx="104.04572"
       id="path4279-9"
       style="fill:#2b1100;fill-opacity:1;stroke:none"
       sodipodi:type="arc" />
    <use
       x="0"
       y="0"
       xlink:href="#path4267-7"
       id="use4418"
       transform="translate(-228.57143,-1.7031119e-6)"
       width="744.09448"
       height="1052.3622" />
    <use
       x="0"
       y="0"
       xlink:href="#path4271-0"
       id="use4422"
       transform="translate(-228.57143,-1.7031116e-6)"
       width="744.09448"
       height="1052.3622" />
    <use
       x="0"
       y="0"
       xlink:href="#rect4277-2"
       id="use4428"
       transform="translate(-228.57143,-1.7031116e-6)"
       width="744.09448"
       height="1052.3622" />
    <use
       x="0"
       y="0"
       xlink:href="#path4279-9"
       id="use4430"
       transform="translate(-228.57143,-1.7031117e-6)"
       width="744.09448"
       height="1052.3622" />
    <use
       height="1052.3622"
       width="744.09448"
       transform="matrix(1,0,0,-1,244.28571,1807.7846)"
       id="use4432"
       xlink:href="#rect4265-4"
       y="0"
       x="0" />
    <use
       height="1052.3622"
       width="744.09448"
       transform="matrix(1,0,0,-1,244.28571,1807.7846)"
       id="use4434"
       xlink:href="#path4267-7"
       y="0"
       x="0" />
    <use
       height="1052.3622"
       width="744.09448"
       transform="matrix(1,0,0,-1,244.28571,1807.7846)"
       id="use4436"
       inkscape:transform-center-x="-17.162875"
       xlink:href="#path4269-0"
       y="0"
       x="0"
       inkscape:transform-center-y="2.0152734e-05" />
    <use
       height="1052.3622"
       width="744.09448"
       transform="matrix(1,0,0,-1,244.28571,1807.7846)"
       id="use4438"
       xlink:href="#path4271-0"
       y="0"
       x="0" />
    <use
       height="1052.3622"
       width="744.09448"
       transform="matrix(1,0,0,-1,244.28571,1807.7846)"
       id="use4440"
       xlink:href="#rect4273-0"
       y="0"
       x="0" />
    <use
       height="1052.3622"
       width="744.09448"
       transform="matrix(1,0,0,-1,244.28571,1807.7846)"
       id="use4442"
       xlink:href="#path4275-0"
       y="0"
       x="0" />
    <use
       height="1052.3622"
       width="744.09448"
       transform="matrix(1,0,0,-1,244.28571,1807.7846)"
       id="use4444"
       xlink:href="#rect4277-2"
       y="0"
       x="0" />
    <use
       height="1052.3622"
       width="744.09448"
       transform="matrix(1,0,0,-1,244.28571,1807.7846)"
       id="use4446"
       xlink:href="#path4279-9"
       y="0"
       x="0" />
    <rect
       ry="20.346663"
       y="616.32513"
       x="363.34241"
       height="40.693325"
       width="60.753414"
       id="rect4265-7"
       style="fill:#373748;fill-opacity:1;stroke:none" />
    <path
       transform="matrix(0,-0.3911375,0.32340946,0,299.04727,688.46997)"
       d="m 262.85714,195.21933 a 215,71.428574 0 1 1 -430,0 215,71.428574 0 1 1 430,0 z"
       sodipodi:ry="71.428574"
       sodipodi:rx="215"
       sodipodi:cy="195.21933"
       sodipodi:cx="47.857143"
       id="path4267-3"
       style="fill:#d38d5f;fill-opacity:1;stroke:none"
       sodipodi:type="arc" />
    <path
       inkscape:transform-center-x="-17.162875"
       sodipodi:nodetypes="cssssc"
       inkscape:connector-curvature="0"
       id="path4269-07"
       d="m 368.32489,619.29332 c 0,0 -41.39593,-15.3084 -50.4372,-28.33735 -11.42904,-16.46988 -31.52519,-31.39307 -18.19578,-34.43764 12.9781,-2.96433 19.45428,13.90677 31.02778,21.01527 10.50477,6.4521 39.34995,2.25082 47.08261,15.25935 10.25824,17.25725 -9.47741,26.50037 -9.47741,26.50037 z"
       style="fill:#d38d5f;stroke:none" />
    <path
       sodipodi:nodetypes="sssssss"
       inkscape:connector-curvature="0"
       id="path4271-3"
       d="m 368.3647,638.86207 c 15.07857,0 27.83238,9.78334 32.04947,23.24424 0.9618,3.07007 6.63786,5.47169 6.63786,8.8519 0,3.15366 -5.60897,7.06356 -6.45047,9.95148 -4.01511,13.77938 -16.9278,23.86409 -32.23686,23.86409 -18.51756,0 -33.529,-14.75484 -33.529,-32.95585 0,-18.20102 15.01144,-32.95586 33.529,-32.95586 z"
       style="fill:#d38d5f;fill-opacity:1;stroke:none" />
    <rect
       ry="20.346663"
       y="673.92554"
       x="301.40891"
       height="40.693325"
       width="60.753414"
       id="rect4273-5"
       style="fill:#373748;fill-opacity:1;stroke:none" />
    <path
       sodipodi:nodetypes="cscsc"
       inkscape:connector-curvature="0"
       id="path4275-8"
       d="m 362.96592,756.17256 c 0,0 84.07257,-26.75805 104.37007,-58.5999 16.17348,-25.37228 -55.03593,15.58723 -55.03593,15.58723 0,0 -47.15676,-7.95654 -56.21188,6.86377 -12.01262,19.66079 6.87774,36.1489 6.87774,36.1489 z"
       style="fill:#d38d5f;stroke:none" />
    <rect
       ry="21.884853"
       y="609.97498"
       x="339.89114"
       height="127.25635"
       width="43.769707"
       id="rect4277-9"
       style="fill:#ff2a2a;fill-opacity:1;stroke:none" />
    <path
       transform="matrix(0,-0.68896751,0.64554519,0,300.65125,743.78861)"
       d="m 153.5432,99.78833 a 49.497475,49.497475 0 1 1 -98.994952,0 49.497475,49.497475 0 1 1 98.994952,0 z"
       sodipodi:ry="49.497475"
       sodipodi:rx="49.497475"
       sodipodi:cy="99.78833"
       sodipodi:cx="104.04572"
       id="path4279-8"
       style="fill:#502d16;fill-opacity:1;stroke:none"
       sodipodi:type="arc" />
    <use
       height="1052.3622"
       width="744.09448"
       transform="translate(-239.02269,534.11495)"
       id="use4283-5"
       xlink:href="#path2990"
       y="0"
       x="0" />
    <use
       height="1052.3622"
       width="744.09448"
       transform="translate(-239.02269,534.11495)"
       id="use4285-2"
       xlink:href="#path2987"
       y="0"
       x="0" />
    <rect
       ry="21.884853"
       y="606.40552"
       x="103.82942"
       height="127.25635"
       width="43.769707"
       id="rect4277-9-5"
       style="fill:#ff2a2a;fill-opacity:1;stroke:none" />
    <use
       height="1052.3622"
       width="744.09448"
       transform="translate(-239.02269,534.11495)"
       id="use4289-1"
       xlink:href="#path2985"
       y="0"
       x="0" />
    <use
       height="1052.3622"
       width="744.09448"
       transform="matrix(1,0,0,-1,235.74901,778.23017)"
       id="use4293-3"
       xlink:href="#rect3803"
       y="0"
       x="0" />
    <use
       height="1052.3622"
       width="744.09448"
       transform="matrix(1,0,0,-1,235.74901,778.23017)"
       id="use4295-2"
       xlink:href="#path2990"
       y="0"
       x="0" />
    <use
       height="1052.3622"
       width="744.09448"
       transform="matrix(1,0,0,-1,235.74901,778.23017)"
       id="use4297-3"
       inkscape:transform-center-x="-17.162875"
       xlink:href="#path3762-0"
       y="0"
       x="0" />
    <use
       height="1052.3622"
       width="744.09448"
       transform="matrix(1,0,0,-1,235.74901,778.23017)"
       id="use4299-7"
       xlink:href="#path2987"
       y="0"
       x="0" />
    <use
       height="1052.3622"
       width="744.09448"
       transform="matrix(1,0,0,-1,235.74901,778.23017)"
       id="use4301-4"
       xlink:href="#rect3803-7"
       y="0"
       x="0" />
    <use
       height="1052.3622"
       width="744.09448"
       transform="matrix(1,0,0,-1,235.74901,778.23017)"
       id="use4303-2"
       xlink:href="#path3762"
       y="0"
       x="0" />
    <rect
       ry="21.884853"
       y="579.97699"
       x="578.82947"
       height="127.25635"
       width="43.769707"
       id="rect4277-9-6"
       style="fill:#ff2a2a;fill-opacity:1;stroke:none" />
    <use
       height="1052.3622"
       width="744.09448"
       transform="matrix(1,0,0,-1,235.74901,778.23017)"
       id="use4307-9"
       xlink:href="#path2985"
       y="0"
       x="0" />
  </g>
</svg>
